<svg xmlns="http://www.w3.org/2000/svg" data-name="Layer 1" viewBox="0 0 48 60" x="0px" y="0px"><title>Filter</title><path d="M47,12a2,2,0,0,0-2-2H24a2,2,0,0,0,0,4H45A2,2,0,0,0,47,12Z"/><path d="M3,14H8.35a6,6,0,1,0,0-4H3a2,2,0,0,0,0,4Zm11-4a2,2,0,1,1-2,2A2,2,0,0,1,14,10Z"/><path d="M45,22H37.65a6,6,0,1,0,0,4H45a2,2,0,0,0,0-4ZM32,26a2,2,0,1,1,2-2A2,2,0,0,1,32,26Z"/><path d="M22,22H3a2,2,0,0,0,0,4H22a2,2,0,0,0,0-4Z"/><path d="M45,34H28a2,2,0,0,0,0,4H45a2,2,0,0,0,0-4Z"/><path d="M18,30a6,6,0,0,0-5.65,4H3a2,2,0,0,0,0,4h9.35A6,6,0,1,0,18,30Zm0,8a2,2,0,1,1,2-2A2,2,0,0,1,18,38Z"/><text x="0" y="63" fill="#000000" font-size="5px" font-weight="bold" font-family="'Helvetica Neue', Helvetica, Arial-Unicode, Arial, Sans-serif">Created by Yoyon Pujiyono</text><text x="0" y="68" fill="#000000" font-size="5px" font-weight="bold" font-family="'Helvetica Neue', Helvetica, Arial-Unicode, Arial, Sans-serif">from the Noun Project</text></svg>